<svg height="542" width="720" xmlns="http://www.w3.org/2000/svg">
<rect height="542" fill="#555" width="720"></rect>
<text fill="#7f7" font-family="Courier New" font-size="12" xml:space="preserve">
<tspan x="10" y="26">└─┬ wordpress-rest-api@0.8.0 </tspan>
<tspan x="10" y="42">  ├── bluebird@3.5.0 </tspan>
<tspan x="10" y="58">  ├── li@1.2.1 </tspan>
<tspan x="10" y="74">  ├── lodash@2.4.2 </tspan>
<tspan x="10" y="90">  ├─┬ node.extend@1.1.6 </tspan>
<tspan x="10" y="106">  │ └── is@3.2.1 </tspan>
<tspan x="10" y="122">  ├─┬ parse-link-header@0.4.1 </tspan>
<tspan x="10" y="138">  │ └── xtend@4.0.1 </tspan>
<tspan x="10" y="154">  ├── qs@6.4.0 </tspan>
<tspan x="10" y="170">  ├── route-parser@0.0.4 </tspan>
<tspan x="10" y="186">  └─┬ superagent@1.8.5 </tspan>
<tspan x="10" y="202">    ├── component-emitter@1.2.1 </tspan>
<tspan x="10" y="218">    ├── cookiejar@2.0.6 </tspan>
<tspan x="10" y="234">    ├─┬ debug@2.6.3 </tspan>
<tspan x="10" y="250">    │ └── ms@0.7.2 </tspan>
<tspan x="10" y="266">    ├── extend@3.0.0 </tspan>
<tspan x="10" y="282">    ├─┬ form-data@1.0.0-rc3 </tspan>
<tspan x="10" y="298">    │ ├── async@1.5.2 </tspan>
<tspan x="10" y="314">    │ ├─┬ combined-stream@1.0.5 </tspan>
<tspan x="10" y="330">    │ │ └── delayed-stream@1.0.0 </tspan>
<tspan x="10" y="346">    │ └─┬ mime-types@2.1.15 </tspan>
<tspan x="10" y="362">    │   └── mime-db@1.27.0 </tspan>
<tspan x="10" y="378">    ├── formidable@1.0.17 </tspan>
<tspan x="10" y="394">    ├── methods@1.1.2 </tspan>
<tspan x="10" y="410">    ├── mime@1.3.4 </tspan>
<tspan x="10" y="426">    ├── qs@2.3.3 </tspan>
<tspan x="10" y="442">    ├─┬ readable-stream@1.0.27-1 </tspan>
<tspan x="10" y="458">    │ ├── core-util-is@1.0.2 </tspan>
<tspan x="10" y="474">    │ ├── inherits@2.0.3 </tspan>
<tspan x="10" y="490">    │ ├── isarray@0.0.1 </tspan>
<tspan x="10" y="506">    │ └── string_decoder@0.10.31 </tspan>
<tspan x="10" y="522">    └── reduce-component@1.0.1</tspan>
</text>
</svg>
